<svg xmlns="http://www.w3.org/2000/svg" version="1.1" xmlns:xlink="http://www.w3.org/1999/xlink" xmlns:svgjs="http://svgjs.dev/svgjs" width="1440" height="560" preserveAspectRatio="none" viewBox="0 0 1440 560"><g mask="url(&quot;#SvgjsMask1112&quot;)" fill="none"><rect width="1440" height="560" x="0" y="0" fill="#0e2a47"></rect><path d="M62.01 230.01L108.77 257.01L108.77 311.01L62.01 338.01L15.24 311.01L15.24 257.01zM202.31 149.01L249.07 176.01L249.07 230.01L202.31 257.01L155.54 230.01L155.54 176.01zM295.84 149.01L342.61 176.01L342.61 230.01L295.84 257.01L249.07 230.01L249.07 176.01zM389.37 -12.99L436.14 14.01L436.14 68.01L389.37 95.01L342.61 68.01L342.61 14.01zM436.14 230.01L482.91 257.01L482.91 311.01L436.14 338.01L389.37 311.01L389.37 257.01zM482.91 311.01L529.67 338.01L529.67 392.01L482.91 419.01L436.14 392.01L436.14 338.01zM669.97 473.01L716.74 500.01L716.74 554.01L669.97 581.01L623.21 554.01L623.21 500.01zM763.51 311.01L810.27 338.01L810.27 392.01L763.51 419.01L716.74 392.01L716.74 338.01zM810.27 392.01L857.04 419.01L857.04 473.01L810.27 500.01L763.51 473.01L763.51 419.01zM950.57 149.01L997.34 176.01L997.34 230.01L950.57 257.01L903.81 230.01L903.81 176.01zM997.34 392.01L1044.11 419.01L1044.11 473.01L997.34 500.01L950.57 473.01L950.57 419.01zM1090.87 68.01L1137.64 95.01L1137.64 149.01L1090.87 176.01L1044.11 149.01L1044.11 95.01zM1044.11 149.01L1090.87 176.01L1090.87 230.01L1044.11 257.01L997.34 230.01L997.34 176.01zM1231.17 -12.99L1277.94 14.01L1277.94 68.01L1231.17 95.01L1184.41 68.01L1184.41 14.01zM1418.24 149.01L1465.01 176.01L1465.01 230.01L1418.24 257.01L1371.47 230.01L1371.47 176.01z" stroke="rgba(50, 56, 124, 1)" stroke-width="2"></path><path d="M48.57 -33.83L91.87 -8.83L91.87 41.17L48.57 66.17L5.27 41.17L5.27 -8.83zM48.57 266.17L91.87 291.17L91.87 341.17L48.57 366.17L5.27 341.17L5.27 291.17zM91.87 341.17L135.18 366.17L135.18 416.17L91.87 441.17L48.57 416.17L48.57 366.17zM135.18 266.17L178.48 291.17L178.48 341.17L135.18 366.17L91.87 341.17L91.87 291.17zM178.48 341.17L221.78 366.17L221.78 416.17L178.48 441.17L135.18 416.17L135.18 366.17zM265.08 191.17L308.38 216.17L308.38 266.17L265.08 291.17L221.78 266.17L221.78 216.17zM308.38 -33.83L351.69 -8.83L351.69 41.17L308.38 66.17L265.08 41.17L265.08 -8.83zM438.29 41.17L481.6 66.17L481.6 116.17L438.29 141.17L394.99 116.17L394.99 66.17zM394.99 416.17L438.29 441.17L438.29 491.17L394.99 516.17L351.69 491.17L351.69 441.17zM481.6 -33.83L524.9 -8.83L524.9 41.17L481.6 66.17L438.29 41.17L438.29 -8.83zM481.6 266.17L524.9 291.17L524.9 341.17L481.6 366.17L438.29 341.17L438.29 291.17zM524.9 491.17L568.2 516.17L568.2 566.17L524.9 591.17L481.6 566.17L481.6 516.17zM611.5 191.17L654.81 216.17L654.81 266.17L611.5 291.17L568.2 266.17L568.2 216.17zM568.2 266.17L611.5 291.17L611.5 341.17L568.2 366.17L524.9 341.17L524.9 291.17zM568.2 416.17L611.5 441.17L611.5 491.17L568.2 516.17L524.9 491.17L524.9 441.17zM611.5 491.17L654.81 516.17L654.81 566.17L611.5 591.17L568.2 566.17L568.2 516.17zM654.81 -33.83L698.11 -8.83L698.11 41.17L654.81 66.17L611.5 41.17L611.5 -8.83zM698.11 191.17L741.41 216.17L741.41 266.17L698.11 291.17L654.81 266.17L654.81 216.17zM654.81 266.17L698.11 291.17L698.11 341.17L654.81 366.17L611.5 341.17L611.5 291.17zM698.11 341.17L741.41 366.17L741.41 416.17L698.11 441.17L654.81 416.17L654.81 366.17zM654.81 416.17L698.11 441.17L698.11 491.17L654.81 516.17L611.5 491.17L611.5 441.17zM698.11 491.17L741.41 516.17L741.41 566.17L698.11 591.17L654.81 566.17L654.81 516.17zM784.71 191.17L828.02 216.17L828.02 266.17L784.71 291.17L741.41 266.17L741.41 216.17zM741.41 266.17L784.71 291.17L784.71 341.17L741.41 366.17L698.11 341.17L698.11 291.17zM741.41 416.17L784.71 441.17L784.71 491.17L741.41 516.17L698.11 491.17L698.11 441.17zM828.02 116.17L871.32 141.17L871.32 191.17L828.02 216.17L784.71 191.17L784.71 141.17zM871.32 341.17L914.62 366.17L914.62 416.17L871.32 441.17L828.02 416.17L828.02 366.17zM1044.53 41.17L1087.83 66.17L1087.83 116.17L1044.53 141.17L1001.23 116.17L1001.23 66.17zM1044.53 191.17L1087.83 216.17L1087.83 266.17L1044.53 291.17L1001.23 266.17L1001.23 216.17zM1131.13 191.17L1174.43 216.17L1174.43 266.17L1131.13 291.17L1087.83 266.17L1087.83 216.17zM1087.83 416.17L1131.13 441.17L1131.13 491.17L1087.83 516.17L1044.53 491.17L1044.53 441.17zM1174.43 -33.83L1217.74 -8.83L1217.74 41.17L1174.43 66.17L1131.13 41.17L1131.13 -8.83zM1174.43 116.17L1217.74 141.17L1217.74 191.17L1174.43 216.17L1131.13 191.17L1131.13 141.17zM1217.74 341.17L1261.04 366.17L1261.04 416.17L1217.74 441.17L1174.43 416.17L1174.43 366.17zM1217.74 491.17L1261.04 516.17L1261.04 566.17L1217.74 591.17L1174.43 566.17L1174.43 516.17zM1261.04 116.17L1304.34 141.17L1304.34 191.17L1261.04 216.17L1217.74 191.17L1217.74 141.17zM1261.04 266.17L1304.34 291.17L1304.34 341.17L1261.04 366.17L1217.74 341.17L1217.74 291.17zM1390.95 191.17L1434.25 216.17L1434.25 266.17L1390.95 291.17L1347.64 266.17L1347.64 216.17zM1390.95 341.17L1434.25 366.17L1434.25 416.17L1390.95 441.17L1347.64 416.17L1347.64 366.17zM1390.95 491.17L1434.25 516.17L1434.25 566.17L1390.95 591.17L1347.64 566.17L1347.64 516.17zM1434.25 -33.83L1477.55 -8.83L1477.55 41.17L1434.25 66.17L1390.95 41.17L1390.95 -8.83zM1477.55 41.17L1520.86 66.17L1520.86 116.17L1477.55 141.17L1434.25 116.17L1434.25 66.17zM1434.25 116.17L1477.55 141.17L1477.55 191.17L1434.25 216.17L1390.95 191.17L1390.95 141.17zM1477.55 341.17L1520.86 366.17L1520.86 416.17L1477.55 441.17L1434.25 416.17L1434.25 366.17z" stroke="rgba(6, 80, 156, 0.93)" stroke-width="2"></path></g><defs><mask id="SvgjsMask1112"><rect width="1440" height="560" fill="#ffffff"></rect></mask></defs></svg>